HIERARCHY
ROOT Hips
{
	OFFSET	0	0	0
	CHANNELS 6  Xposition Yposition Zposition Xrotation Yrotation Zrotation
	JOINT Spine
	{
		OFFSET	0	6.22639	1.25326
		CHANNELS 3  Xrotation Yrotation Zrotation
		JOINT Spine1
		{
			OFFSET	0	10.6877	-1.90851
			CHANNELS 3  Xrotation Yrotation Zrotation
			JOINT Spine2
			{
				OFFSET	0	8.10164	0.868374
				CHANNELS 3  Xrotation Yrotation Zrotation
				JOINT Spine3
				{
					OFFSET	0	9.69525	2.88186
					CHANNELS 3  Xrotation Yrotation Zrotation
					JOINT Spine4
					{
						OFFSET	0	14.352	-1.46956
						CHANNELS 3  Xrotation Yrotation Zrotation
						JOINT Neck
						{
							OFFSET	0	6.85157	-4.79991
							CHANNELS 3  Xrotation Yrotation Zrotation
							JOINT Head
							{
								OFFSET	0	8.2257	-2.46198
								CHANNELS 3  Xrotation Yrotation Zrotation
								End Site
								{
									OFFSET	0	17.1575	-0.830203
								}
							}
						}
					}
					JOINT LeftShoulder
					{
						OFFSET	-4.12239	17.4438	-8.22569
						CHANNELS 3  Xrotation Yrotation Zrotation
						JOINT LeftArm
						{
							OFFSET	-8.97544	-2.46198	3.15861
							CHANNELS 3  Xrotation Yrotation Zrotation
							JOINT LeftForeArm
							{
								OFFSET	-28.8645	-1.31743	2.06032
								CHANNELS 3  Xrotation Yrotation Zrotation
								JOINT LeftHand
								{
									OFFSET	-23.6955	-1.63749	1.69136
									CHANNELS 3  Xrotation Yrotation Zrotation
									End Site
									{
										OFFSET	-8.64768	-0.597604	0.617222
									}
								}
							}
						}
					}
					JOINT RightShoulder
					{
						OFFSET	4.12239	17.4438	-8.22569
						CHANNELS 3  Xrotation Yrotation Zrotation
						JOINT RightArm
						{
							OFFSET	8.97544	-2.46198	3.15861
							CHANNELS 3  Xrotation Yrotation Zrotation
							JOINT RightForeArm
							{
								OFFSET	28.8645	-1.31743	2.06032
								CHANNELS 3  Xrotation Yrotation Zrotation
								JOINT RightHand
								{
									OFFSET	23.6955	-1.63749	1.69136
									CHANNELS 3  Xrotation Yrotation Zrotation
									End Site
									{
										OFFSET	8.64768	-0.597604	0.617222
									}
								}
							}
						}
					}
				}
			}
		}
	}
	JOINT LeftUpLeg
	{
		OFFSET	-8.47813	-3.1132	-0.626629
		CHANNELS 3  Xrotation Yrotation Zrotation
		JOINT LeftLeg
		{
			OFFSET	-1.88069	-36.8514	-0.576069
			CHANNELS 3  Xrotation Yrotation Zrotation
			JOINT LeftFoot
			{
				OFFSET	-1.83866	-33.8924	2.91475
				CHANNELS 3  Xrotation Yrotation Zrotation
				JOINT LeftToeBase
				{
					OFFSET	0	-4.18359	-11.1116
					CHANNELS 3  Xrotation Yrotation Zrotation
					End Site
					{
						OFFSET	0	-1.67344	-6.69374
					}
				}
			}
		}
	}
	JOINT RightUpLeg
	{
		OFFSET	8.47813	-3.1132	-0.626629
		CHANNELS 3  Xrotation Yrotation Zrotation
		JOINT RightLeg
		{
			OFFSET	1.88069	-36.8514	-0.576069
			CHANNELS 3  Xrotation Yrotation Zrotation
			JOINT RightFoot
			{
				OFFSET	1.83866	-33.8924	2.91475
				CHANNELS 3  Xrotation Yrotation Zrotation
				JOINT RightToeBase
				{
					OFFSET	0	-4.18359	-11.1116
					CHANNELS 3  Xrotation Yrotation Zrotation
					End Site
					{
						OFFSET	0	-1.67344	-6.69374
					}
				}
			}
		}
	}
}
MOTION
Frames: 13
Frame Time: 0.020409
 287.045 14.7132 -101.542 80.1078 24.2848 178.91 0.00513436 -0.0215404 13.4068 177.581 -179.959 -157.655 177.64 -179.877 -157.655 178.459 -179.978 -166.593 179.01 -179.923 -175.532 179.482 179.595 -179.333 179.845 179.995 -179.805 0.203484 0.470856 0.390663 0.00801566 0.422853 0.49598 0.0516578 -5.80571 -1.61183 -0 0.0832878 -0.109262 179.455 179.991 -178.95 179.899 -179.683 -179.067 179.983 174.285 -178.268 -0 -0.0784481 0.0163065 172.378 14.1192 -74.2075 78.608 -179.859 -179.567 179.645 -179.998 -171.916 0.000648997 0 0 2.5188 -40.8534 -31.0811 144.455 -179.737 179.538 176.017 -179.593 177.173 0.00241339 0 0
 295.239 13.8578 -107.088 83.4338 25.3071 166.772 179.982 179.931 -164.897 177.356 179.872 -154.829 177.296 179.615 -154.828 178.441 179.931 -164.897 178.72 -179.887 -174.967 178.787 179.595 -179.402 179.637 179.906 -179.819 0.485523 1.92782 0.91935 179.95 178.367 -178.412 0.0398008 -10.3233 -1.7907 -0 -0.0466037 0.185094 179.291 179.782 -178.63 179.89 -179.828 -178.576 179.971 169.489 -178.278 -0 -0.154986 0.041399 173.02 12.584 -71.7759 79.4311 -179.64 179.368 179.646 -179.73 -171.927 179.998 180 -180 2.63535 -40.7535 -32.5151 144.127 -178.969 -179.604 20.2404 -0.797158 -2.49345 0.0506837 0 0
 303.496 13.9008 -111.698 89.0761 22.1555 146.641 0.00388953 -0.0131712 16.4522 177.35 -179.976 -152.58 177.492 -179.927 -152.58 178.578 -179.987 -163.548 178.306 -179.837 -174.518 177.672 179.554 -179.249 179.302 179.958 -179.781 1.42601 3.06823 2.67086 179.864 177.608 -176.386 0.187562 -13.8036 -1.20582 -0 0.123869 0.371291 178.054 179.455 -176.225 179.641 -179.942 -176.376 0.00207626 15.2189 1.37846 -0 -0.0374753 -0.230934 88.6212 -168.247 106.658 136.214 -176.585 152.026 172.738 178.994 177.276 179.974 180 -180 179.134 -141.847 144.634 143.776 179.586 179.63 172.46 179.786 176.926 179.996 180 -180
 302.272 14.5813 -111.443 86.3653 26.8793 141.49 0.0159098 -0.0535631 16.5429 177.255 -179.901 -152.428 177.553 -179.703 -152.428 178.734 -179.946 -163.457 177.718 -179.78 -174.49 176.091 178.827 -177.796 178.834 179.985 -179.375 1.34078 3.56694 2.4981 179.645 176.953 -172.533 0.394516 -16.0335 -1.4305 -0 0.326031 0.559424 178.745 -179.469 -177.59 142.44 115.149 -84.6298 82.9646 60.1916 -82.4841 -0 -6.95627 -5.08198 88.6544 -168.674 106.905 136.589 -176.408 179.11 171.355 -179.922 177.32 179.974 180 -180 175.139 -142.83 138.972 142.103 179.874 178.555 173.43 179.698 176.849 179.998 180 -180
 297.501 15.4525 -109.228 84.3826 28.8077 146.166 179.998 179.994 -164.328 177.032 179.989 -153.881 177.213 179.967 -153.881 178.601 179.994 -164.328 177.675 -179.787 -174.78 176.108 178.271 -176.939 178.845 179.803 -179.117 1.05984 3.12758 1.98329 179.401 177.509 -168.62 0.758474 -19.4804 -1.17608 -0 0.0962068 0.886014 177.745 179.756 -175.637 145.004 114.436 -88.519 81.164 60.2915 -78.3327 -0 -7.17136 -5.07888 88.9368 -168.208 106.589 136.418 -176.761 -178.547 174.037 -179.964 177.262 179.98 180 -180 172.747 -144.709 133.238 143.511 179.807 179.374 173.855 179.708 176.808 179.997 180 -180
 298.109 15.3526 -107.67 85.0327 27.4097 146.594 0.0180887 -0.0677612 14.9464 176.894 -179.873 -155.089 177.284 -179.618 -155.089 178.722 -179.932 -165.054 177.057 -179.744 -175.024 174.503 177.858 -175.974 178.372 179.732 -178.853 1.18897 2.45891 2.24029 179.251 177.354 -165.214 1.0121 -20.9812 -1.33511 -0 0.137998 1.02085 177.359 179.19 -174.861 150.644 113.649 -93.7741 80.3455 60.3275 -77.3175 -0 -6.98592 -5.17774 150.133 -7.15284 -80.4014 94.5167 -179.866 -178.845 145.056 165.432 176.143 179.739 180 -180 172.126 -144.644 129.626 143.596 -179.939 179.518 171.249 179.908 176.789 179.995 180 -180
 297.486 14.937 -107.414 85.5908 27.8331 148.074 179.999 179.996 -165.431 176.868 179.993 -155.718 177.183 179.98 -155.718 178.876 179.996 -165.431 176.722 -179.722 -175.152 173.477 177.376 -174.926 178.075 179.605 -178.559 0.975774 1.27223 1.85981 179.037 177.47 -162.55 1.28604 -22.0304 -1.25991 -0 0.147139 1.18518 177.185 179.502 -174.536 118.145 133.773 -54.2615 134.47 98.1776 -125.4 -0 12.7469 1.60997 129.584 0.0926252 -89.0554 92.9617 -179.914 -179.288 156.264 -179.989 176.189 179.74 180 -180 170.586 -146.247 126.853 144.241 -179.925 179.922 169.428 179.965 176.772 179.993 180 -180
 298.364 15.9878 -108.585 84.3916 30.0704 146.265 179.994 179.975 -165.224 176.789 179.954 -155.374 177.17 179.861 -155.374 179.136 179.975 -165.224 175.99 -179.655 -175.087 171.395 177.051 -173.783 177.463 179.522 -178.259 1.20284 0.354647 2.31271 178.589 177.226 -159.39 1.54785 -22.1993 -0.919336 -0 0.226683 1.2083 176.441 178.83 -173.042 133.001 118.136 -73.6371 117.39 96.5759 -115.946 -0 13.1847 1.77609 90.8879 9.23283 -89.7811 94.0219 -179.787 -179.204 164.762 -179.949 176.231 179.739 180 -180 173.375 -146.526 126.596 145.163 -179.804 179.436 168.756 179.912 176.714 179.992 180 -180
 298.758 16.6157 -108.482 83.7872 30.9813 144.755 0.00122318 -0.00456126 15.0116 176.748 -179.991 -154.981 177.231 -179.974 -154.981 179.257 -179.995 -164.988 175.604 -179.616 -175.011 170.296 176.598 -172.517 177.15 179.401 -177.916 1.14277 -0.157801 2.20739 178.015 176.76 -156.237 1.87795 -22.5139 -0.95358 -0 0.141089 1.0024 175.304 177.256 -170.671 158.856 109.773 -102.895 111.31 96.3149 -110.031 -0 13.2823 1.73081 66.9671 15.5554 -85.512 92.8305 -179.097 -179.095 169.976 -179.898 176.473 179.739 180 -180 176.732 -146.715 127.089 146.879 -179.521 179.911 168.295 179.963 176.761 179.992 180 -180
 299.895 15.8815 -108.723 86.4744 29.3205 141.61 7.96578e-06 -2.94129e-05 15.1537 176.74 -180 -154.744 177.244 -180 -154.744 179.338 -180 -164.846 175.403 -179.594 -174.965 169.651 176.094 -171.111 176.979 179.342 -177.538 0.841126 -1.52925 1.644 177.444 176.527 -153.849 2.22046 -21.8117 -0.891261 -0 0.212159 0.858174 174.174 175.597 -168.24 9.52883 72.0765 43.7803 99.4653 95.9707 -98.159 -0 13.6474 1.65091 46.13 18.2328 -80.8637 92.4979 -178.573 179.965 174.008 179.962 176.591 179.738 180 -180 0.0286255 -33.4835 -53.3696 147.301 -179.166 179.804 169.305 179.987 176.792 179.994 180 -180
 298.65 16.4289 -112.118 84.5599 31.9684 144.764 179.997 179.989 -165.036 176.733 179.979 -155.06 177.19 179.937 -155.06 179.255 179.989 -165.036 175.596 -179.616 -175.027 170.122 175.481 -170.033 177.144 179.193 -177.225 0.52755 -2.38456 1.03833 176.63 175.974 -151.681 2.55089 -20.9782 -0.697029 -0 0.290616 0.73238 173.089 173.459 -165.784 32.517 70.3754 18.8741 83.3896 95.9555 -81.823 -0 14.2322 1.52587 94.9863 38.6813 -91.485 128.832 -171.951 -172.46 155.657 -155.632 -156.444 179.715 180 -180 2.9049 -33.6518 -53.2906 148.658 -179.016 179.943 169.462 179.979 176.802 179.995 180 -180
 298.669 16.4459 -112.687 85.8316 32.295 141.939 0.00136224 -0.00507462 15.0264 176.704 -179.99 -154.956 177.165 -179.971 -154.956 179.158 -179.995 -164.974 175.751 -179.628 -175.005 170.487 174.678 -168.556 177.291 179.012 -176.801 0.13838 -3.40168 0.274557 176.076 175.68 -150.255 2.85471 -20.0696 -0.695375 -0 0.422829 0.56554 172.635 171.981 -164.682 102.872 114.711 -41.5462 179.49 100.789 172.338 -0 41.5001 0.0400995 93.2412 38.475 -89.9136 127.932 -171.811 -178.525 157.811 -179.136 -168.304 179.721 180 -180 4.90781 -33.1153 -53.5878 149.215 -178.839 179.869 168.427 179.983 176.791 179.995 180 -180
 298.269 17.4551 -114.101 84.571 34.2637 141.35 180 179.999 -164.815 176.676 179.997 -154.691 177.134 179.992 -154.691 179.168 179.999 -164.815 175.679 -179.618 -174.953 170.256 174.295 -167.961 177.235 178.673 -176.611 0.0976486 -3.90961 0.194499 175.512 175.318 -148.584 3.2311 -19.4588 -0.536347 -0 0.444095 0.394114 170.393 170.474 -159.628 119.325 101.394 -59.6026 177.975 100.511 -177.145 -0 41.4428 -0.427326 90.9069 38.0415 -88.6954 128.369 -171.529 -179.813 158.607 -179.936 -178.201 179.72 180 -180 7.05882 -32.4456 -53.9153 149.798 -178.773 179.914 166.392 179.993 176.748 179.995 180 -180
